<svg xmlns="http://www.w3.org/2000/svg" viewBox="0 0 131.38 52.29"><defs><style>.cls-1,.cls-3{fill:#3169aa;}.cls-2{fill:#42bfce;}.cls-3{fill-rule:evenodd;}</style></defs><title>Asset 460</title><g id="Layer_2" data-name="Layer 2"><g id="Layer_1-2" data-name="Layer 1"><path class="cls-1" d="M17.44,47.1a1.16,1.16,0,0,1-.85-.36,1.17,1.17,0,0,1-.36-.85l-.07-8.33-4.6,7.77H9.31L4.7,37.82V46a1.06,1.06,0,0,1-.32.77,1.1,1.1,0,0,1-.76.31H0v-18H3.4a1.35,1.35,0,0,1,1.2.65l7.64,12.54L11.43,38l4.8-8.09a1.37,1.37,0,0,1,1.27-.72h3.33l.07,18Z"/><path class="cls-1" d="M38,40.14c0,.07,0,.47-.06,1.21H27.78a5.69,5.69,0,0,0,.23.55,3.24,3.24,0,0,0,3.2,1.7,4.73,4.73,0,0,0,3.2-1.21l1.83,1.9a1,1,0,0,1,.3.8,1.07,1.07,0,0,1-.43.77,8.09,8.09,0,0,1-5.06,1.47,8.5,8.5,0,0,1-5.91-2,6.67,6.67,0,0,1-2.25-5.19A6.74,6.74,0,0,1,25.06,35a7.71,7.71,0,0,1,5.47-2,7.57,7.57,0,0,1,5.32,1.94A6.8,6.8,0,0,1,38,40.14m-10.09-2a3.61,3.61,0,0,1-1.19.31c-.77.14-1.16.26-1.16.34H33.4a2.83,2.83,0,0,0-.95-1.74,2.79,2.79,0,0,0-1.89-.64,2.67,2.67,0,0,0-2.68,1.73"/><path class="cls-1" d="M55.54,28V45.82a1.25,1.25,0,0,1-.36.9,1.17,1.17,0,0,1-.88.38H50.9V45.69a5,5,0,0,1-4.08,1.64,6.6,6.6,0,0,1-4.9-2,7.14,7.14,0,0,1-2-5.22,7.1,7.1,0,0,1,2-5.21,6.61,6.61,0,0,1,4.9-2,7.13,7.13,0,0,1,5.65,2.87l-1.8-2.61V29.43a1.35,1.35,0,0,1,.41-1,1.34,1.34,0,0,1,1-.41ZM47.83,43.44a2.69,2.69,0,0,0,2.09-.9,3.45,3.45,0,0,0,.82-2.43,3.41,3.41,0,0,0-.82-2.42,2.92,2.92,0,0,0-4.18,0,3.45,3.45,0,0,0-.81,2.42,3.5,3.5,0,0,0,.81,2.45,2.75,2.75,0,0,0,2.09.88"/><path class="cls-1" d="M58.05,45.3V33.19h3.27a1.64,1.64,0,0,1,1.16.45A1.56,1.56,0,0,1,63,34.79V47.1h-3.1a1.79,1.79,0,0,1-1.8-1.8"/><path class="cls-2" d="M66.64,46.28a1.5,1.5,0,0,1-.9-.91,1.66,1.66,0,0,1,.05-1.31l1-2.32a9.7,9.7,0,0,0,1.76.92,13.33,13.33,0,0,0,2.06.62,10.08,10.08,0,0,0,2.08.22c2,0,2.94-.48,2.94-1.46a1,1,0,0,0-.44-.85,3.22,3.22,0,0,0-1.16-.57c-.48-.15-1-.29-1.63-.43l-1.88-.42a9.19,9.19,0,0,1-1.87-.64,9,9,0,0,1-1.64-1,4,4,0,0,1-1.16-1.46,4.86,4.86,0,0,1-.44-2.12,5.11,5.11,0,0,1,2.06-4.18,9.31,9.31,0,0,1,5.91-1.63,12.62,12.62,0,0,1,6.5,1.57l-1,2.31a1.55,1.55,0,0,1-2,.82,9.82,9.82,0,0,0-3.62-.75c-1.94,0-2.91.53-2.91,1.6a1.2,1.2,0,0,0,.75,1.06,5.91,5.91,0,0,0,1.9.59,21,21,0,0,1,2.46.55,17.57,17.57,0,0,1,2.45.89A4.44,4.44,0,0,1,79.93,39a4.49,4.49,0,0,1,.75,2.62,5.13,5.13,0,0,1-2.06,4.17,9.24,9.24,0,0,1-5.91,1.65,15.18,15.18,0,0,1-6.07-1.18"/><path class="cls-2" d="M89.4,32.93q7.11,0,7.11,6.43V47.1H93.12a1.09,1.09,0,0,1-.82-.35,1.14,1.14,0,0,1-.32-.83V45.3q-1.08,2-4.12,2A5.63,5.63,0,0,1,84,46.12,4,4,0,0,1,82.67,43,3.53,3.53,0,0,1,84.19,40a8.06,8.06,0,0,1,4.65-1.08h5.49c0-.09-.47-.21-1.41-.38a5,5,0,0,1-1.43-.34c-.33-1-1.27-1.5-2.81-1.5a6.7,6.7,0,0,0-2.42.46,1.64,1.64,0,0,1-2.12-.79l-.88-1.76a9.1,9.1,0,0,1,2.82-1.21,13.43,13.43,0,0,1,3.32-.42m-.17,11.29a2.28,2.28,0,0,0,2.39-1.6V41.41H89.53q-2.13,0-2.13,1.41a1.25,1.25,0,0,0,.48,1,2.07,2.07,0,0,0,1.35.39"/><path class="cls-2" d="M112.28,33.19a2,2,0,0,1,1.42.58,1.94,1.94,0,0,1,.61,1.44v9.34a9.92,9.92,0,0,1-.54,3.43,5.84,5.84,0,0,1-1.6,2.41,6.87,6.87,0,0,1-2.56,1.42,11.39,11.39,0,0,1-3.46.48,11.56,11.56,0,0,1-6.89-1.83l1-1.93a1.53,1.53,0,0,1,.89-.76,1.46,1.46,0,0,1,1.16,0,8.58,8.58,0,0,0,3.43.72q3.72,0,3.72-3.33v-.49a5.18,5.18,0,0,1-4.14,1.67,6.83,6.83,0,0,1-4.84-1.86,6.39,6.39,0,0,1-2-4.87,6.37,6.37,0,0,1,2-4.86,6.83,6.83,0,0,1,4.84-1.86,7.93,7.93,0,0,1,3.34.81,6.55,6.55,0,0,1,2.76,2.35l-1.73-2.9Zm-8,8.52a3.21,3.21,0,0,0,2.21.78,3,3,0,0,0,2.17-.8,2.71,2.71,0,0,0,.85-2,2.66,2.66,0,0,0-.85-2,3.05,3.05,0,0,0-2.17-.79,3.09,3.09,0,0,0-2.19.79,2.61,2.61,0,0,0-.87,2,2.75,2.75,0,0,0,.85,2.07"/><path class="cls-2" d="M131.38,40.14c0,.07,0,.47-.06,1.21H121.2a3,3,0,0,0,.23.55,3.22,3.22,0,0,0,3.2,1.7,4.77,4.77,0,0,0,3.2-1.21l1.82,1.9a1,1,0,0,1,.3.8,1,1,0,0,1-.43.77,8.09,8.09,0,0,1-5.06,1.47,8.5,8.5,0,0,1-5.91-2,6.67,6.67,0,0,1-2.25-5.19A6.74,6.74,0,0,1,118.47,35a7.71,7.71,0,0,1,5.47-2,7.55,7.55,0,0,1,5.32,1.94,6.76,6.76,0,0,1,2.12,5.27m-10.09-2a3.51,3.51,0,0,1-1.19.31c-.77.14-1.16.26-1.16.34h7.87A2.72,2.72,0,0,0,124,36.42a2.67,2.67,0,0,0-2.68,1.73"/><polygon class="cls-3" points="58.16 28.39 63.11 28.39 60.63 31.72 58.16 28.39"/><polygon class="cls-3" points="63.08 8.96 63.03 9.1 58.81 7.56 58.86 7.43 63.08 8.96"/><polygon class="cls-3" points="62.82 9.68 62.77 9.81 58.55 8.28 58.6 8.14 62.82 9.68"/><polygon class="cls-3" points="62.56 10.4 62.51 10.53 58.29 9 58.34 8.86 62.56 10.4"/><polygon class="cls-3" points="62.3 11.11 62.25 11.25 58.03 9.71 58.08 9.58 62.3 11.11"/><polygon class="cls-3" points="62.04 11.83 61.99 11.97 57.77 10.43 57.82 10.3 62.04 11.83"/><polygon class="cls-3" points="61.78 12.55 61.73 12.68 57.51 11.15 57.56 11.01 61.78 12.55"/><path class="cls-3" d="M48.91,10.09c0,9.66,11.71,10.5,14.25,3.59h0l2-5.61L64,7.64l.41-1.15-1.17-.42.42-1.15-6.88-2.5-3.3,9.07,1.17.42-.42,1.15,1.17.43-.31.85.58.21,3-8.2,5.73,2.08-1.83,5c-1.92,5.23-11.89,4.93-12-3.36A8.45,8.45,0,0,1,65.66,4.88a8.87,8.87,0,0,1,1.81,5.21,8,8,0,0,1-4.68,7.53l-1.86.76a5.32,5.32,0,0,0-3.7,5.3V25.6a1.09,1.09,0,0,0,2.18.06,1.09,1.09,0,0,0,1.09,1,1.08,1.08,0,0,0,1.08-1,1.09,1.09,0,0,0,2.18-.06v-.86c0-3.66,5.09-3.08,6-3.75s.26-1.3.21-1.8c-.08-1,1.43-1.46.22-2.15.25-.13.61-.06.71-.58s-.45-.77-.3-1.17c.35-1,2.43-.89,1.41-2.19C70.14,11,69.8,10.4,69.63,9.83c0-.1,0-.21,0-.32A3.3,3.3,0,0,0,69.47,8,11.27,11.27,0,0,0,59,0,10.09,10.09,0,0,0,48.91,10.09m14-4.8-.21.57L57.57,4,54.9,11.34l-.59-.22,2.88-7.91Zm.75,1.57-.2.57L58.33,5.56l-2.68,7.35-.59-.22,2.88-7.91Z"/></g></g></svg>