<?xml version="1.0" encoding="utf-8"?>
<!-- Generator: Adobe Illustrator 25.2.0, SVG Export Plug-In . SVG Version: 6.00 Build 0)  -->
<svg version="1.1" id="Layer_1" xmlns="http://www.w3.org/2000/svg" xmlns:xlink="http://www.w3.org/1999/xlink" x="0px" y="0px"
	 viewBox="0 0 100 125" style="enable-background:new 0 0 100 125;" xml:space="preserve">
<style type="text/css">
	.st0{fill:#00BCD5;}
</style>
<g>
	<path class="st0" d="M57.6,39.5c-2.8-2.5-6.4-3.6-10.2-3.2C41,37.2,36,42.8,36,49.3c0,3.7,1.8,6.2,3.9,9.2c0.7,1,1.4,2,2.1,3.1
		c0.2,0.3,0.4,0.7,0.4,1.2h13c0.1-0.4,0.2-0.9,0.4-1.2c0.7-1.1,1.4-2.1,2.1-3.1c2.1-3,3.9-5.6,3.9-9.3C62,45.5,60.4,42,57.6,39.5z"
		/>
	<path class="st0" d="M82.2,53.1c1.4-3.2,2-4.5,1.6-9.4c-0.8-11.6-8-19.5-8-19.5C64.9,11.1,48,11.8,47.1,11.8
		c-11.6,0.7-19.3,7-21.5,9.1c-1,0.9-12,11-11.8,25.3C14,55.3,19.1,67,24.5,75.3c1.7,2.6,4,5.7,4.4,8.7c0.9,6.4-0.1,11.7-2.8,15.7
		c-1.9,2.9-3.6,5.3-5.4,7.6c4,1.8,10.4,4.1,18.5,4.6c11.2,0.6,19.8-2.6,24.2-4.6c-0.3-0.4-1.7-3-1.8-6.6c-0.1-2.1,0.5-3.7,1.9-3.7
		c4.3,0.1,7.4,1.2,11.7,0.5c3.3-0.5,5.3-1.4,5.9-4.4c0.7-3.5-1.2-4-0.9-5.7c0.4-2.4,1.9-3.6,2.7-6.3c1-3.8-0.8-6,0.7-6.8
		c2.1-1.3,3.9-1.2,5.8-3C92.5,68.5,80.6,57.3,82.2,53.1z M48,21.8c0-0.6,0.4-1,1-1s1,0.4,1,1v6.9c0,0.6-0.4,1-1,1s-1-0.4-1-1V21.8z
		 M28,50.6h-6.9c-0.6,0-1-0.4-1-1s0.4-1,1-1H28c0.6,0,1,0.4,1,1S28.5,50.6,28,50.6z M28.6,30.7c-0.4-0.4-0.4-1,0-1.4
		c0.4-0.4,1-0.4,1.4,0l4.9,4.9c0.4,0.4,0.4,1,0,1.4c-0.2,0.2-0.4,0.3-0.7,0.3s-0.5-0.1-0.7-0.3L28.6,30.7z M52.7,79.5h-7.4
		c-0.6,0-1-0.4-1-1c0-0.6,0.4-1,1-1h7.3c0.6,0,1,0.4,1,1C53.6,79.1,53.2,79.5,52.7,79.5z M56.4,74.6H41.6c-0.5,0-0.9-0.4-1-1
		c0-0.6,0.4-1,1-1h14.7c0.6,0,1,0.4,1,1C57.4,74.2,56.9,74.6,56.4,74.6z M56.4,69.8H41.6c-0.5,0-0.9-0.4-1-1c0-0.6,0.4-1,1-1h14.7
		c0.6,0,1,0.4,1,1C57.4,69.3,56.9,69.8,56.4,69.8z M59.6,59.7c-0.7,0.9-1.4,1.9-2.1,3c-0.1,0.1-0.2,0.4-0.2,1.3l-0.1,0.9H40.8
		L40.7,64c-0.1-0.9-0.2-1.2-0.2-1.3c-0.7-1.1-1.4-2.1-2.1-3c-2.2-3.1-4.2-6-4.3-10.4c-0.1-7.5,5.7-14.1,13.1-14.9
		c4.3-0.5,8.6,0.9,11.7,3.7c3.2,2.9,5,6.9,5,11.2C63.9,53.6,61.8,56.6,59.6,59.7z M63.9,35.8c-0.2,0-0.5-0.1-0.7-0.3
		c-0.4-0.4-0.4-1,0-1.4l4.9-4.9c0.4-0.4,1-0.4,1.4,0c0.4,0.4,0.4,1,0,1.4l-4.9,4.9C64.4,35.7,64.1,35.8,63.9,35.8z M76.9,50.7h-6.9
		c-0.6,0-1-0.4-1-1s0.4-1,1-1h6.9c0.6,0,1,0.4,1,1S77.5,50.7,76.9,50.7z"/>
</g>
</svg>
