<svg xmlns="http://www.w3.org/2000/svg" viewBox="0 0 8.54 12"><defs><style>.cls-1{fill:#0bbcd4;}</style></defs><g id="Layer_2" data-name="Layer 2"><g id="Layer_1-2" data-name="Layer 1"><path id="Path_193" data-name="Path 193" class="cls-1" d="M8.54,3.86A4.15,4.15,0,0,0,4.27,0,4.16,4.16,0,0,0,0,3.86,3.6,3.6,0,0,0,.87,6.05h0c.32.41.62.48.91,1a3,3,0,0,1,.54,1.52A.44.44,0,0,0,2.77,9H3a.11.11,0,0,0,.12-.11V6.26a.91.91,0,0,0-.1-.4L2.43,4.72a.29.29,0,0,1,.13-.39l.14,0h0A.32.32,0,0,1,3,4.46l.73,1.41a1,1,0,0,1,.1.38V8.84A.11.11,0,0,0,3.92,9h.69a.12.12,0,0,0,.12-.11V6.25a.75.75,0,0,1,.1-.38l.73-1.41a.29.29,0,0,1,.26-.16h0a.28.28,0,0,1,.29.26.32.32,0,0,1,0,.14L5.46,5.87a.87.87,0,0,0-.1.39V8.84A.13.13,0,0,0,5.48,9h.29a.45.45,0,0,0,.46-.41A3.09,3.09,0,0,1,6.76,7c.29-.48.59-.55.91-1h0A3.68,3.68,0,0,0,8.54,3.86Z"/><path id="Path_194" data-name="Path 194" class="cls-1" d="M3.65,12H4.89a.48.48,0,0,0,.48-.48h0A.49.49,0,0,0,4.89,11H3.65a.49.49,0,0,0-.48.48h0A.48.48,0,0,0,3.65,12Z"/><path id="Path_195" data-name="Path 195" class="cls-1" d="M3,10.49h2.6A.47.47,0,0,0,6.05,10h0a.48.48,0,0,0-.48-.48H3a.48.48,0,0,0-.48.48h0A.47.47,0,0,0,3,10.49Z"/></g></g></svg>