<?xml version="1.0" encoding="utf-8"?>
<svg version="1.1" xmlns:xlink="http://www.w3.org/1999/xlink" width="32px" height="27px" xmlns="http://www.w3.org/2000/svg">
  <g transform="matrix(1 0 0 1 -414 -672 )">
    <path d="M 10.7589285714286 13.1053156146179  C 11.2053571428571 12.6568106312292  11.4285714285714 12.1156146179402  11.4285714285714 11.4817275747508  C 11.4285714285714 10.8478405315615  11.2053571428571 10.3066445182724  10.7589285714286 9.85813953488372  C 10.3125 9.40963455149502  9.77380952380952 9.18538205980066  9.14285714285714 9.18538205980066  C 8.51190476190476 9.18538205980066  7.97321428571429 9.40963455149502  7.52678571428571 9.85813953488372  C 7.08035714285714 10.3066445182724  6.85714285714286 10.8478405315615  6.85714285714286 11.4817275747508  C 6.85714285714286 12.1156146179402  7.08035714285714 12.6568106312292  7.52678571428571 13.1053156146179  C 7.97321428571429 13.5538205980066  8.51190476190476 13.778073089701  9.14285714285714 13.778073089701  C 9.77380952380952 13.778073089701  10.3125 13.5538205980066  10.7589285714286 13.1053156146179  Z M 17.6160714285714 13.1053156146179  C 18.0625 12.6568106312292  18.2857142857143 12.1156146179402  18.2857142857143 11.4817275747508  C 18.2857142857143 10.8478405315615  18.0625 10.3066445182724  17.6160714285714 9.85813953488372  C 17.1696428571429 9.40963455149502  16.6309523809524 9.18538205980066  16 9.18538205980066  C 15.3690476190476 9.18538205980066  14.8303571428571 9.40963455149502  14.3839285714286 9.85813953488372  C 13.9375 10.3066445182724  13.7142857142857 10.8478405315615  13.7142857142857 11.4817275747508  C 13.7142857142857 12.1156146179402  13.9375 12.6568106312292  14.3839285714286 13.1053156146179  C 14.8303571428571 13.5538205980066  15.3690476190476 13.778073089701  16 13.778073089701  C 16.6309523809524 13.778073089701  17.1696428571429 13.5538205980066  17.6160714285714 13.1053156146179  Z M 24.4732142857143 13.1053156146179  C 24.9196428571429 12.6568106312292  25.1428571428571 12.1156146179402  25.1428571428571 11.4817275747508  C 25.1428571428571 10.8478405315615  24.9196428571429 10.3066445182724  24.4732142857143 9.85813953488372  C 24.0267857142857 9.40963455149502  23.4880952380952 9.18538205980066  22.8571428571429 9.18538205980066  C 22.2261904761905 9.18538205980066  21.6875 9.40963455149502  21.2410714285714 9.85813953488372  C 20.7946428571429 10.3066445182724  20.5714285714286 10.8478405315615  20.5714285714286 11.4817275747508  C 20.5714285714286 12.1156146179402  20.7946428571429 12.6568106312292  21.2410714285714 13.1053156146179  C 21.6875 13.5538205980066  22.2261904761905 13.778073089701  22.8571428571429 13.778073089701  C 23.4880952380952 13.778073089701  24.0267857142857 13.5538205980066  24.4732142857143 13.1053156146179  Z M 29.8571428571429 5.71395348837209  C 31.2857142857143 7.478073089701  32 9.40066445182724  32 11.4817275747508  C 32 13.5627906976744  31.2857142857143 15.4853820598007  29.8571428571429 17.2495016611296  C 28.4285714285714 19.0136212624585  26.4880952380952 20.406976744186  24.0357142857143 21.4295681063123  C 21.5833333333333 22.4521594684385  18.9047619047619 22.9634551495017  16 22.9634551495017  C 14.6904761904762 22.9634551495017  13.4345238095238 22.8558139534884  12.2321428571429 22.6405315614618  C 10.172619047619 24.709634551495  7.58333333333333 26.0790697674419  4.46428571428571 26.7488372093023  C 3.8452380952381 26.868438538206  3.33333333333333 26.9461794019934  2.92857142857143 26.9820598006645  C 2.78571428571429 26.9940199335548  2.65476190476191 26.9581395348837  2.53571428571429 26.8744186046512  C 2.41666666666667 26.7906976744186  2.33928571428571 26.6830564784053  2.30357142857143 26.5514950166113  C 2.25595238095238 26.3720930232558  2.375 26.1508305647841  2.66071428571429 25.887707641196  C 2.7202380952381 25.8279069767442  2.86011904761905 25.6993355481728  3.08035714285714 25.5019933554817  C 3.30059523809524 25.3046511627907  3.45238095238095 25.1641196013289  3.53571428571429 25.0803986710963  C 3.61904761904762 24.9966777408638  3.75892857142857 24.8441860465116  3.95535714285714 24.6229235880399  C 4.15178571428571 24.4016611295681  4.29464285714286 24.2132890365449  4.38392857142857 24.0578073089701  C 4.47321428571429 23.9023255813953  4.5952380952381 23.6810631229236  4.75 23.3940199335548  C 4.90476190476191 23.106976744186  5.02380952380952 22.8199335548173  5.10714285714286 22.5328903654485  C 5.19047619047619 22.2458471760797  5.27678571428571 21.9019933554817  5.36607142857143 21.5013289036545  C 5.45535714285714 21.1006644518272  5.52976190476191 20.6671096345515  5.58928571428571 20.2006644518272  C 3.85119047619048 19.1242524916944  2.48511904761905 17.8295681063123  1.49107142857143 16.3166112956811  C 0.497023809523809 14.8036544850498  0 13.1920265780731  0 11.4817275747508  C 0 9.40066445182724  0.714285714285714 7.478073089701  2.14285714285714 5.71395348837209  C 3.57142857142857 3.94983388704319  5.51190476190476 2.55647840531562  7.96428571428571 1.53388704318937  C 10.4166666666667 0.511295681063124  13.0952380952381 0  16 0  C 18.9047619047619 0  21.5833333333333 0.511295681063124  24.0357142857143 1.53388704318937  C 26.4880952380952 2.55647840531562  28.4285714285714 3.94983388704319  29.8571428571429 5.71395348837209  Z " fill-rule="nonzero" fill="#a0a2a5" stroke="none" transform="matrix(1 0 0 1 414 672 )" />
  </g>
</svg>