<!-- Generator: Adobe Illustrator 25.2.0, SVG Export Plug-In  -->
<svg version="1.1" xmlns="http://www.w3.org/2000/svg" xmlns:xlink="http://www.w3.org/1999/xlink" x="0px" y="0px" width="29.7px"
	 height="27px" viewBox="0 0 29.7 27" style="overflow:visible;enable-background:new 0 0 29.7 27;" xml:space="preserve">
<style type="text/css">
	.st0{fill:#A0A2A5;}
</style>
<defs>
</defs>
<g>
	<path class="st0" d="M29.7,12.5c-0.1-1.1-1.1-1.9-2.2-1.9l-7.4,0c-0.4,0-0.7-0.4-0.5-0.8c0.6-1.6,1-3.2,1.2-4.9
		c0.1-1.6,0-3.7-1.5-4.5c-0.7-0.4-1.8-0.6-2.5-0.3C16,0.4,16.2,1.5,16.2,2c0,0.9-0.3,1.7-0.6,2.5c-0.8,1.1-1.5,2.3-2.4,3.5
		c-0.7,1-1.6,2.3-2.8,2.6c-0.6,0.1-1.1,0.6-1.1,1.3v13.9c0,0.7,0.6,1.3,1.3,1.3h2.2h5.1h5.8c1.1,0,2.1-0.8,2.2-1.9
		c0.1-0.9-0.3-1.7-1-2.1c0,0,0,0,0,0h0c1.1,0,2.1-0.8,2.2-1.9c0.1-0.9-0.3-1.7-1-2.1c0,0,0,0,0,0h0c1.1,0,2.1-0.8,2.2-1.9
		c0.1-0.9-0.3-1.7-1-2.1h0.1C28.9,15,29.9,13.8,29.7,12.5z"/>
	<path class="st0" d="M6.9,10.8H1.1c-0.6,0-1.1,0.5-1.1,1.1v14C0,26.6,0.5,27,1.1,27h5.8C7.5,27,8,26.6,8,26v-14
		C8,11.3,7.5,10.8,6.9,10.8z"/>
</g>
</svg>
