<!-- Generator: Adobe Illustrator 25.2.0, SVG Export Plug-In  -->
<svg version="1.1" xmlns="http://www.w3.org/2000/svg" xmlns:xlink="http://www.w3.org/1999/xlink" x="0px" y="0px" width="30.2px"
	 height="26.8px" viewBox="0 0 30.2 26.8" style="overflow:visible;enable-background:new 0 0 30.2 26.8;" xml:space="preserve">
<style type="text/css">
	.st0{fill:#A0A2A5;}
</style>
<defs>
</defs>
<path class="st0" d="M30,10.7L16.8,0.1c-0.2-0.2-0.6,0-0.6,0.3v4.5c-2.6,0.5-5.1,1.5-7.3,2.8c-2.3,1.5-4.3,3.3-5.7,5.4
	c-1.5,2.1-2.4,4.4-2.9,6.8c-0.5,2.3-0.4,4.7,0,6.8h0.3c0.5-2.1,1.3-4,2.5-5.6c1.2-1.6,2.6-2.9,4.2-3.8c1.6-0.9,3.2-1.5,4.9-1.6
	c1.4-0.2,2.8,0,4,0.3v5.7c0,0.3,0.3,0.5,0.6,0.3L30,11.3C30.2,11.2,30.2,10.9,30,10.7z"/>
</svg>
