<svg width="21" height="20" viewBox="0 0 21 20" fill="none" xmlns="http://www.w3.org/2000/svg">
<g clip-path="url(#clip0_17_38)">
<path d="M10.2222 3C13.9012 3 18.3842 5.417 19.9522 8.901C20.0982 9.229 20.2222 9.611 20.2222 10C20.2222 10.388 20.0992 10.771 19.9522 11.099C18.3832 14.583 13.9002 17 10.2222 17C6.54317 17 2.06017 14.583 0.492168 11.099C0.346168 10.77 0.222168 10.389 0.222168 10C0.222168 9.612 0.345168 9.229 0.492168 8.901C2.06117 5.417 6.54417 3 10.2222 3ZM10.2222 6C9.1613 6 8.14389 6.42143 7.39374 7.17157C6.6436 7.92172 6.22217 8.93913 6.22217 10C6.22217 11.0609 6.6436 12.0783 7.39374 12.8284C8.14389 13.5786 9.1613 14 10.2222 14C11.283 14 12.3004 13.5786 13.0506 12.8284C13.8007 12.0783 14.2222 11.0609 14.2222 10C14.2222 8.93913 13.8007 7.92172 13.0506 7.17157C12.3004 6.42143 11.283 6 10.2222 6ZM10.2222 8C10.7526 8 11.2613 8.21071 11.6364 8.58579C12.0115 8.96086 12.2222 9.46957 12.2222 10C12.2222 10.5304 12.0115 11.0391 11.6364 11.4142C11.2613 11.7893 10.7526 12 10.2222 12C9.69174 12 9.18303 11.7893 8.80795 11.4142C8.43288 11.0391 8.22217 10.5304 8.22217 10C8.22217 9.46957 8.43288 8.96086 8.80795 8.58579C9.18303 8.21071 9.69174 8 10.2222 8Z" fill="white"/>
</g>
<defs>
<clipPath id="clip0_17_38">
<rect width="20" height="20" fill="white" transform="translate(0.222168)"/>
</clipPath>
</defs>
</svg>
