<!-- Generator: Adobe Illustrator 25.2.0, SVG Export Plug-In  -->
<svg version="1.1" xmlns="http://www.w3.org/2000/svg" xmlns:xlink="http://www.w3.org/1999/xlink" x="0px" y="0px" width="20.6px"
	 height="27px" viewBox="0 0 20.6 27" style="overflow:visible;enable-background:new 0 0 20.6 27;" xml:space="preserve">
<style type="text/css">
	.st0{fill:#A0A2A5;}
</style>
<defs>
</defs>
<path class="st0" d="M18.5,11.2c0.4-0.9,0.5-1.2,0.4-2.5c-0.2-3.1-2.2-5.3-2.2-5.3C13.8-0.2,9.2,0,9,0C5.9,0.2,3.8,1.9,3.2,2.5
	C2.9,2.7-0.1,5.4,0,9.3c0.1,2.5,1.4,5.6,2.9,7.9c0.5,0.7,1.1,1.5,1.2,2.3c0.2,1.7,0,3.2-0.8,4.2c-0.5,0.8-1,1.4-1.5,2.1
	c1.1,0.5,2.8,1.1,5,1.2c3,0.2,5.3-0.7,6.5-1.2c-0.1-0.1-0.5-0.8-0.5-1.8c0-0.6,0.1-1,0.5-1c1.2,0,2,0.3,3.2,0.1
	c0.9-0.1,1.4-0.4,1.6-1.2c0.2-0.9-0.3-1.1-0.2-1.5c0.1-0.6,0.5-1,0.7-1.7c0.3-1-0.2-1.6,0.2-1.8c0.6-0.4,1.1-0.3,1.6-0.8
	C21.2,15.3,18,12.3,18.5,11.2z M9,2.7c0-0.3,0.2-0.5,0.5-0.5c0.3,0,0.5,0.2,0.5,0.5v1.9c0,0.3-0.2,0.5-0.5,0.5C9.2,5.1,9,4.9,9,4.6
	V2.7z M3.8,10.7H2c-0.3,0-0.5-0.2-0.5-0.5c0-0.3,0.2-0.5,0.5-0.5h1.9c0.3,0,0.5,0.2,0.5,0.5C4.4,10.5,4.1,10.7,3.8,10.7z M3.8,5.3
	c-0.2-0.2-0.2-0.5,0-0.8C3.9,4.4,4,4.4,4.2,4.4c0.1,0,0.3,0.1,0.4,0.2l1.3,1.3c0.2,0.2,0.2,0.5,0,0.8C5.8,6.7,5.7,6.8,5.5,6.8
	c-0.1,0-0.3-0.1-0.4-0.2L3.8,5.3z M10.5,18.3h-2c-0.2,0-0.3-0.1-0.3-0.3s0.1-0.3,0.3-0.3h2c0.2,0,0.3,0.1,0.3,0.3
	S10.6,18.3,10.5,18.3z M11.5,17h-4c-0.1,0-0.2-0.1-0.3-0.3c0-0.2,0.1-0.3,0.3-0.3h4c0.2,0,0.3,0.1,0.3,0.3
	C11.8,16.8,11.6,17,11.5,17z M11.5,15.7h-4c-0.1,0-0.2-0.1-0.3-0.3c0-0.2,0.1-0.3,0.3-0.3h4c0.2,0,0.3,0.1,0.3,0.3
	C11.8,15.5,11.6,15.7,11.5,15.7z M12.4,12.9c-0.2,0.2-0.4,0.5-0.6,0.8c0,0-0.1,0.1-0.1,0.4l0,0.2H7.3l0-0.2c0-0.2-0.1-0.3-0.1-0.4
	c-0.2-0.3-0.4-0.6-0.6-0.8c-0.6-0.8-1.1-1.6-1.2-2.8c0-2,1.5-3.8,3.5-4c1.2-0.1,2.3,0.2,3.2,1c0.9,0.8,1.3,1.9,1.3,3
	C13.5,11.3,13,12.1,12.4,12.9z M13.5,6.8c-0.1,0-0.3-0.1-0.4-0.2c-0.2-0.2-0.2-0.5,0-0.8l1.3-1.3c0.1-0.1,0.2-0.2,0.4-0.2
	c0.1,0,0.3,0.1,0.4,0.2c0.1,0.1,0.2,0.2,0.2,0.4c0,0.1-0.1,0.3-0.2,0.4l-1.3,1.3C13.8,6.7,13.7,6.8,13.5,6.8z M17,10.8h-1.9
	c-0.3,0-0.5-0.2-0.5-0.5c0-0.3,0.2-0.5,0.5-0.5H17c0.3,0,0.5,0.2,0.5,0.5C17.6,10.5,17.3,10.8,17,10.8z"/>
</svg>
