<?xml version="1.0" encoding="utf-8"?>
<svg version="1.1" xmlns:xlink="http://www.w3.org/1999/xlink" width="18px" height="25px" xmlns="http://www.w3.org/2000/svg">
  <g transform="matrix(1 0 0 1 -965 -585 )">
    <path d="M 15.0000000334577 0  L 3.00000016728879 0  C 1.34314593627463 0  0 1.34314575050762  0 3  L 0 23.2505487438553  C 0 23.6647623062284  0.335786433882016 24.0005487438553  0.749999991635556 24.0005487438553  C 0.875821470162819 24.0005487438553  0.999620988571194 23.9688943440443  1.11000018836719 23.9085  L 9.00000010037324 19.6035  L 16.8900000123793 23.9085  C 17.0003792121753 23.9688943440443  17.1241787305837 24.0005487438553  17.2500002091109 24.0005487438553  C 17.6642137668645 24.0005487438553  18.0000002007465 23.6647623062284  18 23.25  L 18 3  C 17.9999999999999 1.34314575050762  16.6568542644718 0  15.0000000334577 0  Z M 9.00000010037324 6.618  L 9.00000010037324 6.615  C 11.0805000771703 4.4775  16.2810000191712 8.22  9.00000010037324 13.0305  C 1.71900018157526 8.22  6.91950012357621 4.479  9.00000010037324 6.618  Z " fill-rule="nonzero" fill="#a0a2a5" stroke="none" transform="matrix(1 0 0 1 965 585 )" />
  </g>
</svg>