<svg id="Layer_1" data-name="Layer 1" xmlns="http://www.w3.org/2000/svg" viewBox="0 0 195.58 195.58">
<defs><style>.cls-1{fill:#3d5afe;}.cls-2{fill:#fff;}</style></defs><path class="cls-1" d="M195.58,97.79A97.79,97.79,0,1,1,97.79,0a97.79,97.79,0,0,1,97.79,97.79"/><path class="cls-2" d="M122.43,108.25l.14,0-.08,0Z"/><path class="cls-2" d="M144.65,69.19c-4.06-3.27-9.73-.27-11.29,3.72A6.39,6.39,0,0,1,137,78.37c0,3.68-3.78,6.66-8.46,6.66a10.15,10.15,0,0,1-3.84-.76c-1.66,2.06-4.84,3.46-8.48,3.46a12.11,12.11,0,0,1-7-2.08,9.35,9.35,0,0,1-7.06,3c-3.65,0-6.76-1.83-8-4.42a10.15,10.15,0,0,1-4.83,1.18c-4.4,0-8-2.52-8-5.62a4.73,4.73,0,0,1,1.89-3.6c-5.08-3.78-13.88-.29-15.58,4.65-8.43-.73-12.73,4.45-12.27,11.57a6.31,6.31,0,0,1,.76-.07,4.93,4.93,0,1,1-5.39,4.9,4.58,4.58,0,0,1,1.19-3C50.74,83.3,56,75.75,65.67,74.52,68,68.18,65.92,60.38,61.31,58,20.14,67.79,32,139.18,74.88,137.51c15-.59,18.37-12.21,27.13-19.87,4.16,2.06,3.83,10.66,2.42,15.5,4.92,1.07,9.86,2.1,15,2.91,2.15-8.45.91-19.86-2.8-25.5-3.41-.21-6.11-2.6-6.11-5.54,0-3.09,2.94-5.58,6.57-5.58a5.82,5.82,0,0,1,.6,0,7.86,7.86,0,0,1,7.63-5.27,8.49,8.49,0,0,1,3.09.57c.85-3,3.93-5.16,7.62-5.16,4.35,0,7.87,3,7.87,6.79,0,.13,0,.26,0,.39,5.38.11,7.48-3,8-7.75a7.73,7.73,0,0,0,4.84-10.17C166.18,70.84,150.65,59.45,144.65,69.19ZM117,131.69c-2,.7-5.38-.95-8.24-1,.33-8-.6-16.64-7.26-16.47-5.1.13-11.31,15.81-20.84,18.89-11.45,3.71-26.34-3.3-32.46-11.14C33.3,102.88,35.77,69.2,60.34,61.92c1.63.87,3.3,5.26,2.91,9.21C46.8,72.76,44,101.06,54.53,111.83c-2.56,9.65,8.92,16.07,17,10.66,5.48,2.41,12.52.17,13.08-5.34,4.06-.45,6.6-2.44,7.27-6.29a6.94,6.94,0,0,0,5.33-2.43c3.13,3.49,10.38,3,13.08,1C116.4,112.94,117.43,121.6,117,131.69Z"/><path class="cls-2" d="M55.5,93.9c-.08-.51-.13-1-.16-1.51a5.47,5.47,0,0,0-3.44,1.79c.06.55.12,1.1.21,1.66C52.76,96.62,54.29,94.18,55.5,93.9Z"/><path class="cls-2" d="M56.1,102.13a4.93,4.93,0,1,0,0-9.81,6.31,6.31,0,0,0-.76.07c0,.49.08,1,.16,1.51-1.21.28-2.74,2.72-3.39,1.94-.09-.56-.15-1.11-.21-1.66a4.58,4.58,0,0,0-1.19,3A5.17,5.17,0,0,0,56.1,102.13Z"/><path class="cls-2" d="M90.38,74.52c1.77,0,3.48,1.57,5.48,2.18l0,0a9.17,9.17,0,0,0-6.63-2.52,9.47,9.47,0,0,0-6.07,2,7.11,7.11,0,0,1,.89.77C85.86,75.87,88,74.56,90.38,74.52Z"/><path class="cls-2" d="M81.3,79.77c0,3.1,3.56,5.62,8,5.62a10.15,10.15,0,0,0,4.83-1.18,5.88,5.88,0,0,1-.64-2.64,6.41,6.41,0,0,1,2.41-4.87c-2-.61-3.71-2.21-5.48-2.18-2.43,0-4.52,1.35-6.3,2.42a7.11,7.11,0,0,0-.89-.77A4.73,4.73,0,0,0,81.3,79.77Z"/><path class="cls-2" d="M97.17,76.94c2.78.08,5.13-2.18,7.26-1.94a6.63,6.63,0,0,1,4.06,1.89l.05,0a9.63,9.63,0,0,0-6.41-2.34,9.76,9.76,0,0,0-6.24,2.16l0,.07A5,5,0,0,0,97.17,76.94Z"/><path class="cls-2" d="M106.49,81a5.56,5.56,0,0,1,2-4.09A6.63,6.63,0,0,0,104.43,75c-2.13-.24-4.48,2-7.26,1.94a5,5,0,0,1-1.23-.21,4.44,4.44,0,0,1,1.28,3c0,1.82-1.24,3.41-3.13,4.44,1.28,2.59,4.39,4.42,8,4.42a9.35,9.35,0,0,0,7.06-3A5.89,5.89,0,0,1,106.49,81Z"/><path class="cls-2" d="M95.94,76.73l0-.07,0,0Z"/><path class="cls-2" d="M97.22,79.77a4.44,4.44,0,0,0-1.28-3l-.08,0a6.41,6.41,0,0,0-2.41,4.87,5.88,5.88,0,0,0,.64,2.64C96,83.18,97.22,81.59,97.22,79.77Z"/><path class="cls-2" d="M116.65,110.55c.16,0,.3,0,.46,0a6.93,6.93,0,0,0,5.32-2.33,18.55,18.55,0,0,0-5.88,2.12A1.62,1.62,0,0,1,116.65,110.55Z"/><path class="cls-2" d="M117.38,101.45a6.78,6.78,0,0,1,.33-2,5.82,5.82,0,0,0-.6,0c-3.63,0-6.57,2.49-6.57,5.58,0,2.94,2.7,5.33,6.11,5.54a1.62,1.62,0,0,0-.1-.18,18.55,18.55,0,0,1,5.88-2.12l.06-.06A7.27,7.27,0,0,1,117.38,101.45Z"/><path class="cls-2" d="M122.57,108.22a8.7,8.7,0,0,0,2.77.47,7.77,7.77,0,0,0,7.82-6l-.17,0C131,106.69,126.75,107.29,122.57,108.22Z"/><path class="cls-2" d="M133,102.67a6.86,6.86,0,0,1-4.82-6.26,5.85,5.85,0,0,1,.26-1.63,8.49,8.49,0,0,0-3.09-.57,7.86,7.86,0,0,0-7.63,5.27c3.34.26,6,2.62,6,5.53a5,5,0,0,1-1.19,3.18l.08,0C126.75,107.29,131,106.69,133,102.67Z"/><path class="cls-2" d="M122.49,108.19a5,5,0,0,0,1.19-3.18c0-2.91-2.63-5.27-6-5.53a6.78,6.78,0,0,0-.33,2A7.27,7.27,0,0,0,122.49,108.19Z"/><path class="cls-2" d="M133.17,102.66s0,0,0,.06a9.12,9.12,0,0,0,2.89.49c4.2,0,7.59-2.84,7.82-6.41h-.19C141.62,100,138.56,104.3,133.17,102.66Z"/><path class="cls-2" d="M136.05,89.62c-3.69,0-6.77,2.2-7.62,5.16a7.26,7.26,0,0,1,4.87,6.67,6.89,6.89,0,0,1-.13,1.21c5.39,1.64,8.45-2.68,10.51-5.85h.19c0-.13,0-.26,0-.39C143.92,92.66,140.4,89.62,136.05,89.62Z"/><path class="cls-2" d="M133,102.62l0,0,.17,0s0,0,0-.06Z"/><path class="cls-2" d="M133,102.67l0,0,.15,0a6.89,6.89,0,0,0,.13-1.21,7.26,7.26,0,0,0-4.87-6.67,5.85,5.85,0,0,0-.26,1.63A6.86,6.86,0,0,0,133,102.67Z"/><path class="cls-2" d="M109.47,77.83c2.34-.94,2.36-2.37,5.14-2.83,2-.33,4.15,1.14,6,1a6.59,6.59,0,0,1,.49-.8,12.94,12.94,0,0,0-4.94-1,11.66,11.66,0,0,0-7.67,2.61A8.66,8.66,0,0,1,109.47,77.83Z"/><path class="cls-2" d="M120.08,78.37a5.5,5.5,0,0,1,.58-2.39c-1.9.16-4-1.31-6-1-2.78.46-2.8,1.89-5.14,2.83a6.07,6.07,0,0,1,1.34,3.74,6.15,6.15,0,0,1-1.62,4.08,12.11,12.11,0,0,0,7,2.08c3.64,0,6.82-1.4,8.48-3.46C122,83.17,120.08,81,120.08,78.37Z"/><path class="cls-2" d="M109.28,77.91l.19-.08a8.66,8.66,0,0,0-.93-1l-.05,0A5,5,0,0,1,109.28,77.91Z"/><path class="cls-2" d="M110.81,81.57a6.07,6.07,0,0,0-1.34-3.74l-.19.08a5,5,0,0,0-.79-1,5.56,5.56,0,0,0-2,4.09,5.89,5.89,0,0,0,2.7,4.67A6.15,6.15,0,0,0,110.81,81.57Z"/><path class="cls-2" d="M133,74a5.76,5.76,0,0,1,.34-1.12,10.07,10.07,0,0,0-4.83-1.2,9,9,0,0,0-7.38,3.47c.31.13.6.26.88.41C125,74.17,128.7,69.81,133,74Z"/><path class="cls-2" d="M122,75.59c2.36,1.23,3.9,3.19,3.9,5.39a5.23,5.23,0,0,1-1.24,3.29,10.15,10.15,0,0,0,3.84.76c4.68,0,8.46-3,8.46-6.66a6.39,6.39,0,0,0-3.63-5.46A5.76,5.76,0,0,0,133,74C128.7,69.81,125,74.17,122,75.59Z"/><path class="cls-2" d="M120.91,76a4.49,4.49,0,0,0,1.12-.38c-.28-.15-.57-.28-.88-.41a6.59,6.59,0,0,0-.49.8Z"/><path class="cls-2" d="M122,75.59a4.49,4.49,0,0,1-1.12.38h-.25a5.5,5.5,0,0,0-.58,2.39c0,2.58,1.88,4.8,4.61,5.9A5.23,5.23,0,0,0,125.93,81C125.93,78.78,124.39,76.82,122,75.59Z"/></svg>