<svg xmlns="http://www.w3.org/2000/svg" viewBox="0 0 9.6 12"><defs><style>.cls-1{fill:#0bbcd4;}</style></defs><g id="Layer_2" data-name="Layer 2"><g id="Layer_1-2" data-name="Layer 1"><path id="Icon_feather-bookmark" data-name="Icon feather-bookmark" class="cls-1" d="M9,12a.61.61,0,0,1-.35-.11L4.8,9.14,1,11.89A.6.6,0,0,1,0,11.4V1.8A1.81,1.81,0,0,1,1.8,0h6A1.81,1.81,0,0,1,9.6,1.8h0v9.6A.6.6,0,0,1,9,12ZM4.8,7.8a.61.61,0,0,1,.35.11L8.4,10.23V1.8a.6.6,0,0,0-.6-.6h-6a.6.6,0,0,0-.6.6v8.43L4.45,7.91A.61.61,0,0,1,4.8,7.8Z"/></g></g></svg>