<svg xmlns="http://www.w3.org/2000/svg" viewBox="0 0 14 10.5"><defs><style>.cls-1{fill:#0bbcd4;}</style></defs><g id="Layer_2" data-name="Layer 2"><g id="Layer_1-2" data-name="Layer 1"><path id="Icon_open-eye" data-name="Icon open-eye" class="cls-1" d="M7.05,0C2.62,0,0,5.25,0,5.25S2.62,10.5,7.05,10.5s7-5.25,7-5.25S11.38,0,7.05,0ZM7,1.75a3.5,3.5,0,1,1-3.5,3.5A3.5,3.5,0,0,1,7,1.75ZM7,3.5A1.75,1.75,0,1,0,8.75,5.25a2.66,2.66,0,0,0-.1-.49.87.87,0,0,1-1.16.4A.85.85,0,0,1,7.09,4a.78.78,0,0,1,.4-.4A1.4,1.4,0,0,0,7,3.5Z"/></g></g></svg>