<svg xmlns="http://www.w3.org/2000/svg" viewBox="0 0 24 25.06"><defs><style>.cls-1{fill:#00bcd4;}</style></defs><g id="Layer_2" data-name="Layer 2"><g id="Layer_1-2" data-name="Layer 1"><g id="Group_86" data-name="Group 86"><path id="Path_199" data-name="Path 199" class="cls-1" d="M17.48,14.29c.18-.63,1.6-1.07,1.6-1.76s-1.42-1.17-1.6-1.76.66-1.86.25-2.39-1.79-.09-2.36-.5S14.84,6,14.18,5.81s-1.48,1-2.17,1-1.57-1.19-2.17-1-.66,1.7-1.19,2.07-1.95-.06-2.36.5.47,1.73.25,2.39-1.6,1.06-1.6,1.76,1.42,1.16,1.6,1.76-.66,1.85-.25,2.38,1.79.1,2.36.5S9.18,19,9.84,19.25s1.51-1,2.17-1,1.57,1.2,2.17,1,.66-1.7,1.19-2.08,2,.07,2.36-.5S17.26,14.94,17.48,14.29Zm-2.83-2.58h0l-2.73,2.73a.68.68,0,0,1-1,0s0,0,0,0L9.28,12.81a.73.73,0,0,1,0-1,.74.74,0,0,1,1,0l1.1,1.1,2.23-2.23a.75.75,0,0,1,1,0,.81.81,0,0,1,0,1.07Z"/><path id="Path_200" data-name="Path 200" class="cls-1" d="M11.48,3.88h0V6.81a.53.53,0,0,0,.53.53.54.54,0,0,0,.54-.53V3.89a2,2,0,1,0-2.44-1.38,2,2,0,0,0,1.37,1.38Z"/><path id="Path_201" data-name="Path 201" class="cls-1" d="M6.46,6.3,8.18,8.69a.54.54,0,0,0,.44.22.75.75,0,0,0,.32-.1.54.54,0,0,0,.12-.75L7.33,5.67A2,2,0,1,0,4.55,6,2,2,0,0,0,6.46,6.3Z"/><path id="Path_202" data-name="Path 202" class="cls-1" d="M1.39,11.16h0a2,2,0,0,0,2.26-.79l2.8.91a.29.29,0,0,0,.16,0,.55.55,0,0,0,.5-.38.55.55,0,0,0-.35-.69L4,9.34A2,2,0,0,0,2.61,7.39a2,2,0,0,0-1.23,3.77Z"/><path id="Path_203" data-name="Path 203" class="cls-1" d="M12.55,21.17h0V18.25a.54.54,0,0,0-1.07,0v2.92a2,2,0,1,0,2.44,1.37A2,2,0,0,0,12.55,21.17Z"/><path id="Path_204" data-name="Path 204" class="cls-1" d="M17.57,18.75h0l-1.73-2.39a.54.54,0,0,0-.75-.12A.53.53,0,0,0,15,17l1.72,2.39a2,2,0,1,0,.88-.63Z"/><path id="Path_205" data-name="Path 205" class="cls-1" d="M22.64,13.9h0a2,2,0,0,0-2.26.78l-2.8-.91a.55.55,0,0,0-.69.35.55.55,0,0,0,.35.69l2.8.91a2,2,0,0,0,1.35,2,1.93,1.93,0,0,0,2.45-1.22l0-.07a1.91,1.91,0,0,0-1.13-2.45Z"/><path id="Path_206" data-name="Path 206" class="cls-1" d="M7.11,14.12a.55.55,0,0,0-.69-.35l-2.8.91A2,2,0,0,0,.1,16.38a2,2,0,0,0,3.83-.65l2.83-.92A.55.55,0,0,0,7.11,14.12Z"/><path id="Path_207" data-name="Path 207" class="cls-1" d="M8.16,16.4h0l-1.7,2.35a2,2,0,0,0-2.3.69,2,2,0,1,0,3.14-.06L9,17a.51.51,0,0,0-.09-.73l0,0A.56.56,0,0,0,8.16,16.4Z"/><path id="Path_208" data-name="Path 208" class="cls-1" d="M16.93,10.93a.55.55,0,0,0,.5.38.2.2,0,0,0,.15,0l2.8-.91a2,2,0,1,0-.31-1l-2.8.91A.54.54,0,0,0,16.93,10.93Z"/><path id="Path_209" data-name="Path 209" class="cls-1" d="M15.42,8.88h0a.56.56,0,0,0,.44-.22l1.73-2.39a2,2,0,0,0,2.3-.69,2,2,0,0,0-.43-2.77,2,2,0,0,0-2.76.42,2,2,0,0,0,0,2.41L15,8a.51.51,0,0,0,.09.73l0,0A.42.42,0,0,0,15.42,8.88Z"/></g></g></g></svg>